<?xml version="1.0" standalone="no"?>
<!DOCTYPE svg PUBLIC "-//W3C//DTD SVG 20010904//EN"
 "http://www.w3.org/TR/2001/REC-SVG-20010904/DTD/svg10.dtd">
<svg version="1.0" xmlns="http://www.w3.org/2000/svg"
 width="521.000000pt" height="392.000000pt" viewBox="0 0 521.000000 392.000000"
 preserveAspectRatio="xMidYMid meet">
<metadata>
Created by potrace 1.16, written by Peter Selinger 2001-2019
</metadata>
<g transform="translate(0.000000,392.000000) scale(0.100000,-0.100000)"
fill="#000000" stroke="none">
<path d="M2729 2571 c-23 -23 -29 -38 -29 -72 0 -43 2 -45 227 -271 l227 -228
-598 0 -598 0 -29 -29 c-41 -41 -41 -101 0 -142 l29 -29 598 0 598 0 -227
-228 c-225 -226 -227 -228 -227 -271 0 -60 41 -101 102 -101 l43 0 327 328
328 327 0 45 0 45 -328 327 -327 328 -43 0 c-35 0 -50 -6 -73 -29z"/>
</g>
</svg>
