<svg id="Capa_1" enable-background="new 0 0 512 512" height="512" viewBox="0 0 512 512" width="512" xmlns="http://www.w3.org/2000/svg"><g><path d="m435.498 128.325c1.235-3.949 1.903-8.149 1.903-12.505 0-19.973-14.002-36.666-32.723-40.825-2.009-41.756-36.494-74.995-78.748-74.995-15.217 0-29.423 4.314-41.467 11.784-7.466-6.937-17.465-11.185-28.46-11.185s-20.993 4.248-28.46 11.185c-12.043-7.47-26.249-11.784-41.466-11.784-42.254 0-76.739 33.239-78.748 74.995-18.721 4.159-32.723 20.852-32.723 40.825 0 4.356.667 8.556 1.903 12.505-21.75 14.03-36.156 38.46-36.156 66.27 0 43.545 35.3 78.845 78.845 78.845h273.611c43.545 0 78.845-35.3 78.845-78.845 0-27.81-14.406-52.24-36.156-66.27z" fill="#365e7d"/><path d="m254.508 273.439h-135.311c-43.544 0-78.851-35.297-78.851-78.84 0-27.813 14.411-52.244 36.163-66.274-1.237-3.948-1.907-8.154-1.907-12.504 0-19.978 13.999-36.668 32.73-40.822 2-41.76 36.493-74.995 78.748-74.995 15.216 0 29.421 4.309 41.461 11.783 7.463-6.938 17.463-11.185 28.462-11.185.598 0 1.185.01 1.773.041-9.793 13.576-15.855 30.029-16.721 47.842-21.225 4.711-37.09 23.638-37.09 46.276 0 4.938.753 9.7 2.154 14.174-24.658 15.906-40.987 43.605-40.987 75.129 0 49.357 40.018 89.375 89.376 89.375z" fill="#2b4d66"/><path d="m386.61 512h-261.221c21.206-35.845 56.738-62.208 98.719-71.191v-9.965l-4.609-7.404 4.609-8.769v-29.131h63.784v29.08l3.892 9.164-3.892 7.062v9.965c41.98 8.981 77.513 35.344 98.718 71.189z" fill="#aa7a63"/><g fill="#986b54"><path d="m224.11 385.534h63.779v22.699h-63.779z"/><path d="m242.526 385.534v55.275c-17.741 8.979-32.751 35.348-41.709 71.191h-75.428c21.205-35.843 56.739-62.213 98.715-71.191v-9.965l-4.605-7.404 4.605-8.769v-29.136h18.422z"/><circle cx="114.236" cy="272.722" r="40.836"/><circle cx="397.771" cy="272.722" r="40.836"/></g><g fill="#845c47"><path d="m139.925 283.876c-2.714 0-5.347-1.432-6.76-3.972-2.425-4.361-6.594-6.781-12.743-7.399-5.029-.505-9.388.486-9.43.496-4.148 1.016-8.328-1.518-9.345-5.662s1.518-8.328 5.662-9.345c.692-.17 6.976-1.636 14.657-.865 11.235 1.129 19.778 6.407 24.704 15.264 2.074 3.729.732 8.434-2.997 10.508-1.189.661-2.477.975-3.748.975z"/><path d="m372.081 283.876c-1.271 0-2.559-.314-3.748-.975-3.729-2.074-5.07-6.779-2.997-10.508 4.927-8.857 13.469-14.135 24.704-15.264 7.682-.77 13.967.695 14.657.865 4.145 1.017 6.68 5.201 5.663 9.345-1.015 4.134-5.178 6.663-9.314 5.67-.143-.033-4.66-1.055-9.83-.465-5.952.681-10 3.089-12.375 7.36-1.412 2.54-4.045 3.972-6.76 3.972z"/></g><path d="m377.317 194.453v81.541c0 61.738-50.048 111.787-111.787 111.787h-19.05c-61.738 0-111.797-50.048-111.797-111.787v-81.541c4.484 1.505 9.288 2.33 14.277 2.33 21.226 0 38.977-14.844 43.461-34.709 7.463 5.639 16.762 8.989 26.833 8.989 15.257 0 28.71-7.67 36.75-19.349 8.03 11.68 21.483 19.349 36.74 19.349 10.072 0 19.37-3.35 26.833-8.989 4.484 19.865 22.236 34.709 43.461 34.709 4.991 0 9.795-.825 14.279-2.33z" fill="#aa7a63"/><path d="m289.519 385.194c-7.721 1.701-15.752 2.587-23.988 2.587h-19.05c-61.738 0-111.797-50.048-111.797-111.787v-81.541c4.484 1.505 9.288 2.33 14.277 2.33 21.226 0 38.977-14.844 43.461-34.709 2.845 2.144 5.969 3.969 9.288 5.391v108.529c0 53.502 37.595 98.231 87.809 109.2z" fill="#986b54"/><g fill="#2b4d66"><path d="m198.383 236.883c-2.928 0-5.633 1.294-7.849 3.468l-5.112-3.637c-3.476-2.474-8.301-1.66-10.775 1.817s-1.66 8.301 1.817 10.775l8.396 5.973c0 .046-.005.091-.005.138 0 10.219 6.068 18.534 13.528 18.534s13.528-8.314 13.528-18.534-6.069-18.534-13.528-18.534z"/><path d="m337.36 238.532c-2.473-3.476-7.295-4.292-10.775-1.817l-5.112 3.637c-2.216-2.174-4.922-3.468-7.85-3.468-7.459 0-13.527 8.314-13.527 18.534s6.068 18.534 13.527 18.534c7.46 0 13.528-8.314 13.528-18.534 0-.047-.005-.091-.005-.138l8.396-5.973c3.478-2.474 4.292-7.298 1.818-10.775z"/></g><path d="m215.774 218.134c-1.977 0-3.955-.755-5.463-2.263-6.137-6.136-16.121-6.136-22.258 0-3.017 3.017-7.909 3.017-10.927 0s-3.018-7.909 0-10.927c12.161-12.162 31.95-12.162 44.111 0 3.018 3.017 3.018 7.909 0 10.927-1.508 1.508-3.485 2.263-5.463 2.263z" fill="#365e7d"/><path d="m330.582 218.134c-1.977 0-3.955-.754-5.463-2.263-2.973-2.972-6.926-4.61-11.13-4.61-4.203 0-8.156 1.637-11.128 4.61-3.018 3.017-7.91 3.018-10.927 0-3.018-3.017-3.018-7.909-.001-10.927 5.891-5.891 13.724-9.136 22.055-9.136 8.332 0 16.164 3.244 22.055 9.136 3.018 3.017 3.018 7.909.001 10.927-1.507 1.508-3.485 2.263-5.462 2.263z" fill="#365e7d"/><path d="m256.004 314.838c-14.275 0-27.091-9.546-31.166-23.215-1.219-4.09 1.108-8.393 5.197-9.612s8.392 1.107 9.612 5.197c2.137 7.17 8.864 12.178 16.358 12.178 7.503 0 14.228-5.004 16.356-12.169 1.214-4.091 5.517-6.423 9.606-5.208 4.091 1.215 6.423 5.516 5.207 9.606-4.061 13.673-16.878 23.223-31.17 23.223z" fill="#dd636e"/><path d="m404.559 351.919c-12.577 0-22.81-10.232-22.81-22.81v-16.455c0-4.267 3.459-7.726 7.726-7.726s7.726 3.459 7.726 7.726v16.455c0 4.057 3.301 7.357 7.357 7.357s7.357-3.3 7.357-7.357v-16.455c0-4.056-3.301-7.357-7.357-7.357-4.268 0-7.726-3.459-7.726-7.726s3.459-7.726 7.726-7.726c12.577 0 22.81 10.232 22.81 22.809v16.455c.001 12.578-10.231 22.81-22.809 22.81z" fill="#ffd064"/><path d="m403.214 313.199c-1.781.237-3.598.36-5.443.36-8.343 0-16.101-2.502-22.566-6.796l14.481-8.821 11.191 9.135" fill="#986b54"/><path d="m107.44 351.919c-12.577 0-22.81-10.232-22.81-22.81v-16.455c0-12.577 10.232-22.809 22.81-22.809 4.267 0 7.726 3.459 7.726 7.726s-3.459 7.726-7.726 7.726c-4.057 0-7.357 3.3-7.357 7.357v16.455c0 4.057 3.3 7.357 7.357 7.357s7.357-3.3 7.357-7.357v-16.455c0-4.267 3.459-7.726 7.726-7.726s7.726 3.459 7.726 7.726v16.455c.001 12.578-10.231 22.81-22.809 22.81z" fill="#ffd064"/><path d="m108.793 313.199c1.781.237 3.598.36 5.443.36 8.343 0 16.101-2.502 22.566-6.796l-14.481-8.821-11.191 9.135" fill="#986b54"/><path d="m290.192 415.36-2.297-.742v16.225c15.988 5.357 26.198 14.392 26.198 23.385 0 .938-.113 1.885-.34 2.823-.062.299-.144.608-.237.907-4.708 15.36-32.945 24.539-57.515 24.539-31.297 0-53.817-12.475-57.525-24.57-.093-.288-.165-.577-.237-.865-.216-.937-.33-1.885-.33-2.833 0-8.993 10.209-18.038 26.198-23.385v-16.174l-2.205.659c-.01 0-.021.01-.031.01-24.312 7.366-39.415 22.273-39.415 38.889 0 2.812.433 5.604 1.257 8.262.134.423.268.845.422 1.257 7.18 20.202 36.427 34.202 71.865 34.202 35.448 0 64.716-14.01 71.865-34.202.154-.402.288-.814.412-1.226.835-2.689 1.267-5.481 1.267-8.293.001-16.606-15.081-31.492-39.352-38.868z" fill="#ffd064"/></g></svg>