<svg id="Capa_1" enable-background="new 0 0 512 512" height="512" viewBox="0 0 512 512" width="512" xmlns="http://www.w3.org/2000/svg"><g><path d="m186.24 265.819h139.512v220.447h-139.512z" fill="#2b4d66"/><path d="m308.654 52.663v52.652h-105.315v-52.652c0-29.082 23.571-52.663 52.653-52.663 29.092 0 52.662 23.581 52.662 52.663z" fill="#365e7d"/><path d="m308.654 54.136v51.18h-105.315v-51.18c16.328-6.325 34.089-9.797 52.653-9.797h.01c18.564 0 36.314 3.472 52.652 9.797z" fill="#2b4d66"/><path d="m277.919 4.77c-18.141 8.324-30.73 26.641-30.73 47.893v52.652h-43.855v-52.652c0-29.082 23.581-52.663 52.663-52.663 7.819 0 15.246 1.71 21.922 4.77z" fill="#2b4d66"/><path d="m255.997 64.21c-80.6 0-145.938 65.339-145.938 145.938v79.414h291.876v-79.414c0-80.599-65.339-145.938-145.938-145.938z" fill="#365e7d"/><path d="m298.262 70.425c-59.998 18.121-103.677 73.812-103.677 139.724v79.416h-84.526v-79.416c0-80.602 65.344-145.936 145.935-145.936 14.701 0 28.886 2.173 42.268 6.212z" fill="#2b4d66"/><path d="m386.523 512h-63.377l-33.573-16.782-33.574 16.782-33.512-10.662-33.635 10.662h-63.377c21.191-35.819 56.701-62.172 98.65-71.144v-55.238h63.737v55.238c41.96 8.972 77.47 35.325 98.661 71.144z" fill="#aa7a63"/><path d="m242.532 385.617v55.238c-15.828 8.01-29.48 29.872-38.596 59.955-2.013 6.644-8.142 11.19-15.085 11.19h-63.379c21.191-35.819 56.701-62.172 98.65-71.144v-55.238h18.41z" fill="#986b54"/><g fill="#986b54"><circle cx="114.327" cy="272.881" r="40.809"/><circle cx="397.673" cy="272.881" r="40.809"/></g><g fill="#845c47"><path d="m139.921 284.034c-2.714 0-5.347-1.432-6.76-3.972-2.425-4.361-6.594-6.781-12.743-7.399-5.029-.505-9.388.486-9.43.496-4.148 1.016-8.328-1.518-9.345-5.662s1.518-8.328 5.662-9.345c.692-.17 6.976-1.636 14.657-.865 11.235 1.129 19.778 6.407 24.704 15.264 2.074 3.729.732 8.434-2.997 10.508-1.188.661-2.477.975-3.748.975z"/><path d="m372.078 284.034c-1.271 0-2.559-.314-3.748-.975-3.729-2.074-5.07-6.779-2.997-10.508 4.927-8.857 13.469-14.135 24.704-15.264 7.682-.77 13.967.695 14.657.865 4.145 1.017 6.68 5.201 5.663 9.345-1.015 4.134-5.178 6.663-9.314 5.67-.143-.033-4.66-1.055-9.83-.465-5.952.681-10 3.089-12.375 7.36-1.413 2.54-4.046 3.972-6.76 3.972z"/></g><path d="m287.862 385.617v15.061c-7.211 1.494-14.69 2.256-22.345 2.256h-19.037c-7.654 0-15.133-.773-22.355-2.235v-15.082z" fill="#986b54"/><path d="m377.234 235.365v40.785c0 53.466-37.56 98.166-87.74 109.127-7.716 1.7-15.741 2.586-23.972 2.586h-19.038c-61.708 0-111.723-50.015-111.723-111.723v-40.775c0-41.073 28.608-75.471 66.982-84.361 6.305-1.453 12.867-2.225 19.615-2.225h69.28c47.83 0 86.596 38.765 86.596 86.586z" fill="#aa7a63"/><path d="m289.493 385.278c-7.716 1.7-15.741 2.586-23.972 2.586h-19.038c-61.708 0-111.723-50.015-111.723-111.723v-40.775c0-41.073 28.608-75.471 66.982-84.361v125.145c0 53.467 37.571 98.166 87.751 109.128z" fill="#986b54"/><g fill="#2b4d66"><path d="m198.417 237.065c-2.924 0-5.627 1.292-7.841 3.462l-5.109-3.634c-3.479-2.475-8.302-1.659-10.775 1.817-2.474 3.477-1.66 8.301 1.817 10.775l8.393 5.971c-.001.044-.005.088-.005.132 0 10.213 6.064 18.522 13.519 18.522s13.519-8.309 13.519-18.522-6.063-18.523-13.518-18.523z"/><path d="m337.307 238.709c-2.472-3.476-7.297-4.292-10.775-1.817l-5.109 3.634c-2.214-2.17-4.917-3.462-7.841-3.462-7.455 0-13.519 8.309-13.519 18.522s6.064 18.522 13.519 18.522 13.519-8.309 13.519-18.522c0-.044-.005-.088-.005-.132l8.393-5.971c3.478-2.472 4.292-7.296 1.818-10.774z"/></g><path d="m215.797 218.333c-1.978 0-3.955-.754-5.464-2.263-2.969-2.97-6.918-4.605-11.117-4.605s-8.148 1.635-11.117 4.605c-3.018 3.017-7.91 3.018-10.927 0-3.018-3.017-3.018-7.909-.001-10.927 5.888-5.888 13.717-9.131 22.044-9.131s16.156 3.243 22.044 9.131c3.017 3.018 3.017 7.909-.001 10.927-1.506 1.508-3.484 2.263-5.461 2.263z" fill="#365e7d"/><path d="m330.529 218.333c-1.978 0-3.955-.754-5.464-2.263-2.969-2.97-6.918-4.605-11.117-4.605-4.2 0-8.148 1.636-11.119 4.605-3.017 3.018-7.909 3.018-10.927 0-3.017-3.018-3.017-7.909.001-10.927 5.888-5.888 13.717-9.131 22.044-9.131s16.156 3.243 22.044 9.131c3.017 3.018 3.017 7.909-.001 10.927-1.506 1.508-3.484 2.263-5.461 2.263z" fill="#365e7d"/><path d="m256 314.973c-14.268 0-27.076-9.541-31.151-23.203-1.219-4.089 1.108-8.392 5.196-9.612 4.092-1.223 8.393 1.107 9.613 5.196 2.136 7.163 8.856 12.165 16.342 12.165 7.495 0 14.214-4.999 16.34-12.157 1.214-4.091 5.518-6.422 9.606-5.208 4.091 1.215 6.423 5.516 5.207 9.606-4.057 13.669-16.868 23.213-31.153 23.213z" fill="#845c47"/><g><g><circle cx="102.216" cy="312.451" fill="#ffd064" r="15.833"/><path d="m107.698 327.306c-1.71.639-3.554.979-5.481.979-8.746 0-15.834-7.088-15.834-15.834 0-8.736 7.088-15.823 15.834-15.823 1.927 0 3.771.34 5.481.979-6.047 2.225-10.353 8.035-10.353 14.845 0 6.818 4.306 12.629 10.353 14.854z" fill="#ffc250"/></g><g><circle cx="409.777" cy="312.451" fill="#ffd064" r="15.833"/><path d="m415.258 327.306c-1.71.639-3.554.979-5.481.979-8.746 0-15.834-7.088-15.834-15.834 0-8.736 7.088-15.823 15.834-15.823 1.927 0 3.771.34 5.481.979-6.047 2.225-10.353 8.035-10.353 14.845 0 6.818 4.306 12.629 10.353 14.854z" fill="#ffc250"/></g></g><g><path d="m222.424 478.427c-18.542 0-33.573 15.031-33.573 33.573h67.145c0-18.542-15.031-33.573-33.572-33.573z" fill="#ffd064"/><path d="m234.416 480.631c-12.62 4.831-21.582 17.05-21.582 31.369h-23.983c0-18.543 15.03-33.573 33.574-33.573 4.224 0 8.272.782 11.991 2.204z" fill="#ffc250"/><path d="m289.569 478.427c-18.542 0-33.573 15.031-33.573 33.573h67.145c.001-18.542-15.03-33.573-33.572-33.573z" fill="#ffd064"/><path d="m301.561 480.631c-12.62 4.831-21.582 17.05-21.582 31.369h-23.983c0-18.543 15.03-33.573 33.574-33.573 4.224 0 8.272.782 11.991 2.204z" fill="#ffc250"/></g></g></svg>