<svg id="Capa_1" enable-background="new 0 0 512 512" height="512" viewBox="0 0 512 512" width="512" xmlns="http://www.w3.org/2000/svg"><g><path d="m405.831 148.676v260.1h-31.565l-7.891-40.424-21.222 40.424h-176.006l-21.222-40.424-7.891 40.424h-31.564v-260.1c0-82.106 66.57-148.676 148.675-148.676 82.116 0 148.686 66.57 148.686 148.676z" fill="#61a2f9"/><path d="m221.573 148.676v202.547l27.697 57.553h-80.123l-21.222-40.424-7.891 40.424h-31.564v-260.1c0-82.106 66.57-148.676 148.675-148.676 20.027 0 39.126 3.956 56.557 11.136-54.064 22.252-92.129 75.451-92.129 137.54z" fill="#5490f9"/><path d="m386.52 512h-63.379l-33.573-16.786-33.572 16.786-33.573-16.786-33.572 16.786h-63.379c21.192-35.822 56.7-62.167 98.653-71.144v-55.234h63.741v55.234c41.954 8.977 77.463 35.322 98.654 71.144z" fill="#ffddce"/><path d="m242.532 385.617v55.238c-14.731 7.455-27.577 26.908-36.636 53.82-.667 1.981-1.313 4.003-1.939 6.064-2.024 6.67-8.136 11.26-15.106 11.26h-63.379c21.191-35.819 56.701-62.172 98.65-71.144v-55.238z" fill="#ffcbbe"/><g fill="#ffcbbe"><circle cx="114.327" cy="272.881" r="40.809"/><circle cx="397.673" cy="272.881" r="40.809"/></g><g fill="#eaac9d"><path d="m139.924 283.876c-2.714 0-5.347-1.432-6.76-3.972-2.425-4.361-6.594-6.781-12.743-7.399-5.029-.505-9.388.486-9.43.496-4.148 1.016-8.328-1.518-9.345-5.662s1.518-8.328 5.662-9.345c.692-.17 6.976-1.636 14.657-.865 11.235 1.129 19.778 6.407 24.704 15.264 2.074 3.729.732 8.434-2.997 10.508-1.189.661-2.478.975-3.748.975z"/><path d="m372.08 283.876c-1.271 0-2.559-.314-3.748-.975-3.729-2.074-5.07-6.779-2.997-10.508 4.927-8.857 13.469-14.135 24.704-15.264 7.682-.77 13.967.695 14.657.865 4.145 1.017 6.68 5.201 5.663 9.345-1.015 4.134-5.178 6.663-9.314 5.67-.143-.033-4.66-1.055-9.83-.465-5.952.681-10 3.089-12.375 7.36-1.413 2.54-4.045 3.972-6.76 3.972z"/></g><g><path d="m377.234 221.613v54.538c0 53.466-37.56 98.166-87.74 109.127-7.716 1.7-15.741 2.586-23.972 2.586h-19.038c-61.698 0-111.723-50.015-111.723-111.713v-54.538h37.004l21.933-69.774 8.046 21.562 17.987 48.213h72.535l26.033-69.774 21.933 69.774h37.002z" fill="#ffddce"/></g><path d="m289.493 385.278c-7.716 1.7-15.741 2.586-23.972 2.586h-19.038c-61.698 0-111.723-50.015-111.723-111.713v-54.538h37.004l21.933-69.774 8.046 21.562v102.75c-.001 53.466 37.57 98.165 87.75 109.127z" fill="#ffcbbe"/><g fill="#2b4d66"><path d="m198.417 237.065c-2.924 0-5.626 1.292-7.84 3.462l-5.109-3.635c-3.477-2.473-8.301-1.659-10.775 1.817-2.473 3.477-1.66 8.301 1.817 10.775l8.393 5.971c0 .045-.005.087-.005.132 0 10.213 6.064 18.522 13.519 18.522 7.454 0 13.519-8.309 13.519-18.522s-6.064-18.522-13.519-18.522z"/><path d="m337.307 238.709c-2.473-3.476-7.296-4.291-10.775-1.817l-5.109 3.635c-2.214-2.17-4.917-3.462-7.841-3.462-7.454 0-13.518 8.309-13.518 18.522s6.064 18.522 13.518 18.522c7.455 0 13.519-8.309 13.519-18.522 0-.045-.005-.088-.005-.132l8.393-5.971c3.478-2.473 4.291-7.297 1.818-10.775z"/></g><path d="m256 314.973c-14.268 0-27.077-9.541-31.15-23.203-1.219-4.09 1.108-8.393 5.197-9.612 4.09-1.22 8.392 1.108 9.612 5.197 2.135 7.163 8.856 12.165 16.342 12.165 7.495 0 14.214-4.999 16.34-12.157 1.213-4.091 5.518-6.422 9.606-5.208 4.091 1.215 6.423 5.516 5.207 9.606-4.059 13.668-16.87 23.212-31.154 23.212z" fill="#dd636e"/><g><path d="m222.424 478.427c-18.542 0-33.573 15.031-33.573 33.573h67.145c0-18.542-15.031-33.573-33.572-33.573z" fill="#365e7d"/><path d="m234.416 480.631c-12.62 4.831-21.582 17.05-21.582 31.369h-23.983c0-18.543 15.03-33.573 33.574-33.573 4.224 0 8.272.782 11.991 2.204z" fill="#2b4d66"/><path d="m289.569 478.427c-18.542 0-33.573 15.031-33.573 33.573h67.145c.001-18.542-15.03-33.573-33.572-33.573z" fill="#365e7d"/><path d="m301.561 480.631c-12.62 4.831-21.582 17.05-21.582 31.369h-23.983c0-18.543 15.03-33.573 33.574-33.573 4.224 0 8.272.782 11.991 2.204z" fill="#2b4d66"/></g></g></svg>